{
    "asset" : {
        "generator" : "Khronos glTF Blender I/O v1.4.40",
        "version" : "2.0"
    },
    "scene" : 0,
    "scenes" : [
        {
            "name" : "Scene",
            "nodes" : [
                0,
                1
            ]
        }
    ],
    "nodes" : [
        {
            "mesh" : 0,
            "name" : "rook",
            "translation" : [
                0.5,
                0.6655181646347046,
                -0.5
            ]
        },
        {
            "mesh" : 1,
            "name" : "bishop",
            "scale" : [
                0.75,
                0.8499999642372131,
                0.8809017539024353
            ],
            "translation" : [
                1.4994548559188843,
                0.7926689982414246,
                -0.4999200105667114
            ]
        }
    ],
    "meshes" : [
        {
            "name" : "rook",
            "primitives" : [
                {
                    "attributes" : {
                        "POSITION" : 0
                    },
                    "indices" : 1
                }
            ]
        },
        {
            "name" : "bishop",
            "primitives" : [
                {
                    "attributes" : {
                        "POSITION" : 2
                    },
                    "indices" : 3
                }
            ]
        }
    ],
    "accessors" : [
        {
            "bufferView" : 0,
            "componentType" : 5126,
            "count" : 3858,
            "max" : [
                0.48645782470703125,
                0.7986077070236206,
                0.48710888624191284
            ],
            "min" : [
                -0.4861571788787842,
                -0.6631121635437012,
                -0.4861147999763489
            ],
            "type" : "VEC3"
        },
        {
            "bufferView" : 1,
            "componentType" : 5123,
            "count" : 23136,
            "type" : "SCALAR"
        },
        {
            "bufferView" : 2,
            "componentType" : 5126,
            "count" : 1981,
            "max" : [
                0.6433162689208984,
                1.740862250328064,
                0.5571282505989075
            ],
            "min" : [
                -0.6433162689208984,
                -0.9180596470832825,
                -0.5571284294128418
            ],
            "type" : "VEC3"
        },
        {
            "bufferView" : 3,
            "componentType" : 5123,
            "count" : 11874,
            "type" : "SCALAR"
        }
    ],
    "bufferViews" : [
        {
            "buffer" : 0,
            "byteLength" : 46296,
            "byteOffset" : 0
        },
        {
            "buffer" : 0,
            "byteLength" : 46272,
            "byteOffset" : 46296
        },
        {
            "buffer" : 0,
            "byteLength" : 23772,
            "byteOffset" : 92568
        },
        {
            "buffer" : 0,
            "byteLength" : 23748,
            "byteOffset" : 116340
        }
    ],
    "buffers" : [
        {
            "byteLength" : 140088,
            "uri" : "data:application/octet-stream;base64,"
        }
    ]
}
