{
    "asset" : {
        "generator" : "Khronos glTF Blender I/O v1.4.40",
        "version" : "2.0"
    },
    "scene" : 0,
    "scenes" : [
        {
            "name" : "Scene",
            "nodes" : [
                0
            ]
        }
    ],
    "nodes" : [
        {
            "mesh" : 0,
            "name" : "Rook",
            "translation" : [
                0.5,
                0.6655181646347046,
                -0.5
            ]
        }
    ],
    "meshes" : [
        {
            "name" : "Plane.001",
            "primitives" : [
                {
                    "attributes" : {
                        "POSITION" : 0
                    },
                    "indices" : 1
                }
            ]
        }
    ],
    "accessors" : [
        {
            "bufferView" : 0,
            "componentType" : 5126,
            "count" : 3858,
            "max" : [
                0.48645782470703125,
                0.7986077070236206,
                0.48710888624191284
            ],
            "min" : [
                -0.4861571788787842,
                -0.6631121635437012,
                -0.4861147999763489
            ],
            "type" : "VEC3"
        },
        {
            "bufferView" : 1,
            "componentType" : 5123,
            "count" : 23136,
            "type" : "SCALAR"
        }
    ],
    "bufferViews" : [
        {
            "buffer" : 0,
            "byteLength" : 46296,
            "byteOffset" : 0
        },
        {
            "buffer" : 0,
            "byteLength" : 46272,
            "byteOffset" : 46296
        }
    ],
    "buffers" : [
        {
            "byteLength" : 92568,
            "uri" : "data:application/octet-stream;base64,"
        }
    ]
}
